<svg version="1.1" id="Layer_1" xmlns="http://www.w3.org/2000/svg" xmlns:xlink="http://www.w3.org/1999/xlink" x="0px" y="0px"
	 width="100%" viewBox="0 0 500 500" enable-background="new 0 0 500 500" xml:space="preserve">
<path fill="#39B6FF" opacity="1.000000" stroke="none" 
	d="
M1.000000,195.000000 
	C1.000000,130.016098 1.000000,65.532211 1.000000,1.024157 
	C167.608948,1.024157 334.217896,1.024157 500.913422,1.024157 
	C500.913422,167.567291 500.913422,334.134644 500.913422,500.851013 
	C334.333435,500.851013 167.666733,500.851013 1.000000,500.851013 
	C1.000000,399.115326 1.000000,297.307648 1.000000,195.000000 
M371.067078,306.211060 
	C371.067078,317.640778 371.067078,329.070465 371.067078,340.546143 
	C364.939758,340.546143 359.541077,340.546143 354.048035,340.546143 
	C354.048035,304.610931 354.048035,269.032013 354.048035,233.168655 
	C359.727509,233.168655 365.117126,233.168655 371.001495,233.168655 
	C371.001495,235.240005 371.000671,237.030090 371.001648,238.820160 
	C371.009827,254.147446 370.928589,269.475525 371.061646,284.801727 
	C371.136810,293.462860 374.360565,296.707916 382.652496,297.117645 
	C384.622284,297.214996 386.591980,297.315552 389.041504,297.438751 
	C389.041504,299.526276 389.041412,301.322327 389.041473,303.118408 
	C389.041718,315.446899 389.137939,327.776642 388.982330,340.103149 
	C388.937195,343.679108 389.921539,345.272858 393.770844,345.096680 
	C399.423492,344.837952 405.100464,344.904083 410.759705,345.076050 
	C414.064697,345.176483 415.075958,343.826477 415.069580,340.643005 
	C414.997375,304.657257 415.003693,268.671265 415.060120,232.685455 
	C415.064697,229.774536 414.075836,228.308075 411.064209,228.329208 
	C405.066895,228.371292 399.069000,228.356598 393.071472,228.332016 
	C390.494110,228.321457 389.017426,229.244873 389.026398,232.119400 
	C389.076233,248.112961 389.006927,264.107147 389.147247,280.099609 
	C389.156738,281.181244 390.550568,282.250763 391.300598,283.325897 
	C391.960358,282.173859 393.182159,281.027557 393.193970,279.868866 
	C393.331726,266.375549 393.287201,252.880356 393.290741,239.385666 
	C393.291229,237.422775 393.290802,235.459885 393.290802,233.190308 
	C399.227295,233.190308 404.641052,233.190308 410.272217,233.190308 
	C410.272217,269.117706 410.272217,304.790192 410.272217,340.487427 
	C404.464661,340.487427 399.085358,340.487427 393.290588,340.487427 
	C393.290588,326.604126 393.295319,313.131134 393.288544,299.658112 
	C393.285217,293.027771 393.275574,293.027740 386.795135,293.007904 
	C376.287628,292.975739 375.204468,291.897034 375.188965,281.184113 
	C375.165771,265.190399 375.089478,249.195755 375.245758,233.203552 
	C375.282043,229.493271 374.042633,228.109451 370.350952,228.279556 
	C365.696045,228.494003 361.023651,228.323837 356.358826,228.330643 
	C349.349396,228.340851 349.333130,228.344910 349.331940,235.164017 
	C349.325928,269.483917 349.328857,303.803802 349.330292,338.123688 
	C349.330353,339.289795 348.954773,340.672882 349.450226,341.570862 
	C350.184326,342.901337 351.492218,344.806183 352.642456,344.868500 
	C359.122650,345.219727 365.631836,345.201263 372.122833,345.017090 
	C373.147186,344.988037 374.988129,343.487366 375.001892,342.643524 
	C375.197113,330.651733 375.232574,318.654755 375.082794,306.661835 
	C375.046356,303.743530 373.448486,303.122070 371.067078,306.211060 
M330.041626,267.627808 
	C329.368347,268.534607 328.779785,270.141754 328.008118,270.235077 
	C322.812378,270.863464 317.577850,271.170685 312.565735,271.565430 
	C311.537079,265.094696 310.910706,259.306641 309.616913,253.671783 
	C308.767334,249.971512 306.474487,247.023621 302.095245,246.763763 
	C297.664337,246.500839 294.040955,248.142151 292.314301,252.231735 
	C290.781250,255.862793 289.263092,259.795319 289.091644,263.654877 
	C288.360840,280.106323 287.862549,296.579834 287.846252,313.045837 
	C287.839264,320.146729 288.601776,327.380493 290.104553,334.317810 
	C292.057251,343.332031 300.547974,348.120178 309.587860,346.421448 
	C316.800720,345.066040 321.956940,340.874939 325.680695,334.802094 
	C331.123413,325.925964 333.067596,316.011017 334.043060,305.813995 
	C334.332458,302.788971 333.053711,301.562927 330.166901,301.387238 
	C324.349670,301.033203 318.521851,300.724487 312.732147,300.089355 
	C308.543213,299.629822 307.097198,301.150238 307.138580,305.334412 
	C307.200653,311.608246 307.632080,318.098450 302.621735,323.213379 
	C302.213165,323.630463 302.625183,325.677032 303.216431,326.031525 
	C303.902252,326.442688 305.829895,326.160645 306.141083,325.590973 
	C307.930908,322.314362 309.832703,318.987335 310.853638,315.435120 
	C311.790283,312.176117 311.660248,308.610565 312.050720,304.670319 
	C317.993713,305.153992 323.557220,305.606812 329.385803,306.081177 
	C328.735229,316.372162 326.478638,325.644318 320.942535,333.872284 
	C316.512115,340.456879 308.616516,343.977448 302.421997,341.835480 
	C295.439056,339.420990 293.181610,333.415192 293.010345,326.766083 
	C292.551697,308.965546 292.202698,291.154785 292.317749,273.351349 
	C292.353760,267.775635 293.832001,262.174347 294.982910,256.654144 
	C295.652039,253.444702 298.040558,250.770660 301.316498,251.692764 
	C303.249756,252.236938 305.348663,255.154587 305.816498,257.338318 
	C306.853271,262.177856 306.982941,267.222412 307.333771,272.193878 
	C307.523621,274.884705 308.194977,276.712921 311.450684,276.403595 
	C318.080902,275.773651 324.754974,275.489227 331.334167,274.533783 
	C332.672882,274.339417 334.751251,271.741882 334.657532,270.377991 
	C333.969757,260.369934 332.278381,250.526932 327.145264,241.657425 
	C322.368347,233.403442 315.522217,227.986053 305.811920,226.951950 
	C289.121002,225.174500 277.373077,232.268677 271.091705,248.416229 
	C263.054138,269.078339 263.677094,290.486542 266.728394,311.942902 
	C267.981445,320.754303 270.739410,329.162109 276.615295,336.120453 
	C277.504547,337.173492 279.454407,337.330872 280.913696,337.902527 
	C280.655609,336.445801 280.664520,334.873779 280.093903,333.551971 
	C277.416595,327.349976 273.696533,321.451721 271.983124,315.010315 
	C268.356506,301.375977 268.348389,287.352600 269.748718,273.331787 
	C270.749207,263.314850 272.650238,253.577820 277.771393,244.735840 
	C283.304108,235.183304 291.692780,230.649979 302.633026,231.117920 
	C313.172638,231.568726 320.724976,237.074341 324.596313,246.602005 
	C327.192596,252.991791 328.251221,260.006348 330.041626,267.627808 
M194.949280,271.496765 
	C194.949280,258.726654 194.949280,245.956512 194.949280,233.084015 
	C212.024979,233.084015 228.431854,233.084015 245.098755,233.084015 
	C245.098755,238.125900 245.098755,242.839661 245.098755,248.061432 
	C235.636215,248.061432 226.506256,248.196060 217.383530,247.997757 
	C213.524612,247.913864 211.956863,249.176758 212.096329,253.156662 
	C212.323761,259.647095 212.387024,266.162292 212.078430,272.646027 
	C211.862701,277.178436 213.319305,278.998871 218.020966,278.768250 
	C224.463425,278.452271 230.933014,278.689209 237.507843,278.689209 
	C237.507843,283.793457 237.507843,288.200592 237.507843,293.014069 
	C226.222153,293.014069 215.242813,292.926331 204.265625,293.043152 
	C196.180389,293.129181 190.945694,298.057373 190.799347,305.997070 
	C190.584442,317.656982 190.780838,329.323914 190.680511,340.986847 
	C190.654831,343.970703 191.728439,345.094391 194.779602,345.076294 
	C211.774887,344.975494 228.771332,344.979584 245.766724,345.070465 
	C248.859192,345.087006 249.911316,343.779480 249.853088,340.884125 
	C249.762650,336.387085 249.535294,331.861664 249.912735,327.394501 
	C250.341888,322.315643 248.494583,320.680420 243.414505,320.902863 
	C234.658951,321.286255 225.874435,321.009064 216.705826,321.009064 
	C216.705826,316.845612 216.859726,313.356812 216.612274,309.896729 
	C216.537811,308.855408 215.346924,307.893982 214.667465,306.895966 
	C213.838120,307.913940 212.384033,308.879395 212.293274,309.959412 
	C211.987350,313.599945 212.279999,317.286011 212.124954,320.945404 
	C211.989853,324.134918 213.228897,325.489532 216.491714,325.404205 
	C221.986526,325.260437 227.487976,325.373505 232.986633,325.374084 
	C246.973328,325.375580 247.192413,325.636658 245.096970,339.903595 
	C245.075821,340.047668 244.935150,340.174194 244.716080,340.521881 
	C228.313004,340.521881 211.777725,340.521881 194.949677,340.521881 
	C194.949677,329.659424 194.934296,319.174805 194.954514,308.690216 
	C194.970871,300.213409 197.886795,297.250671 206.355469,297.210541 
	C216.686066,297.161560 227.018417,297.101929 237.347137,297.248383 
	C240.719055,297.296204 242.250031,296.305267 242.057114,292.707886 
	C241.825455,288.388031 241.742722,284.026184 242.074799,279.719482 
	C242.420364,275.237915 240.641479,273.858032 236.329773,274.047546 
	C229.914963,274.329498 223.478577,274.120636 217.210541,274.120636 
	C217.210541,266.426422 217.210541,259.539429 217.210541,252.304672 
	C226.824356,252.304672 235.977280,252.205307 245.126068,252.356552 
	C248.500275,252.412308 250.022125,251.357895 249.881607,247.795395 
	C249.684753,242.804352 249.751404,237.798065 249.859222,232.801636 
	C249.924789,229.762482 248.955872,228.128601 245.601959,228.142197 
	C228.606369,228.211075 211.609436,228.100739 194.616364,228.317978 
	C193.310272,228.334686 190.919510,230.383774 190.904373,231.513275 
	C190.665466,249.338943 190.703094,267.168915 190.809494,284.997131 
	C190.815598,286.021515 191.955505,287.039185 192.567719,288.059967 
	C193.357635,287.037018 194.759583,286.053925 194.829224,284.984070 
	C195.099274,280.835754 194.945343,276.659851 194.949280,271.496765 
M130.537231,249.031555 
	C127.431343,249.031555 124.325462,249.031555 121.222687,249.031555 
	C121.222687,243.275330 121.222687,238.224274 121.222687,233.153259 
	C138.216446,233.153259 154.792297,233.153259 171.608368,233.153259 
	C171.608368,238.593506 171.608368,243.690521 171.608368,248.929733 
	C170.230347,249.278412 168.673920,249.267563 167.789398,250.033081 
	C167.161667,250.576385 167.440948,252.167633 167.315384,253.291138 
	C169.583710,253.488541 171.928970,254.095078 174.084015,253.689911 
	C174.996292,253.518387 176.056305,251.241348 176.108047,249.885391 
	C176.330307,244.061249 176.085541,238.220474 176.247711,232.392365 
	C176.340942,229.041016 174.832260,228.074173 171.728851,228.088150 
	C154.731232,228.164764 137.732895,228.167526 120.735268,228.090652 
	C117.509415,228.076065 116.210732,229.412186 116.260468,232.562347 
	C116.344643,237.893661 116.441185,243.233978 116.223061,248.557831 
	C116.058716,252.568832 117.806633,253.790558 121.593658,253.701035 
	C129.255112,253.519913 136.923920,253.636368 144.589645,253.653290 
	C153.655731,253.673294 154.323044,254.277863 154.335846,263.199158 
	C154.370529,287.362885 154.355682,311.526733 154.334869,335.690521 
	C154.333496,337.286224 154.116669,338.881775 153.993698,340.564453 
	C148.444473,340.564453 143.364746,340.564453 137.726501,340.564453 
	C137.726501,338.308502 137.726547,336.351227 137.726501,334.393951 
	C137.725922,312.229919 137.773315,290.065552 137.624649,267.902527 
	C137.613892,266.297516 136.176651,264.702057 135.402649,263.102173 
	C134.668259,264.403381 133.300003,265.701294 133.293320,267.006256 
	C133.166534,291.669312 133.217117,316.333252 133.179626,340.996918 
	C133.175140,343.942657 134.340134,345.185852 137.367386,345.100159 
	C142.695786,344.949432 148.047958,344.802399 153.359207,345.140503 
	C157.786026,345.422302 159.096573,343.840790 159.046844,339.462677 
	C158.838654,321.133911 158.965393,302.801361 158.956497,284.470215 
	C158.952530,276.304840 159.122971,268.132324 158.837891,259.976196 
	C158.570175,252.316803 155.123001,249.173416 147.523224,249.054413 
	C142.191803,248.970932 136.858078,249.033951 130.537231,249.031555 
M332.561432,117.489899 
	C332.560608,104.657257 332.645599,91.823265 332.442108,78.993835 
	C332.418640,77.514442 330.927521,74.923073 329.880280,74.795929 
	C325.811737,74.302032 321.647705,74.594810 317.560913,74.594810 
	C317.560913,80.973267 317.560913,86.709320 317.560913,92.445374 
	C318.069397,92.460190 318.577881,92.475006 319.086365,92.489822 
	C319.252502,90.152603 319.545288,87.816307 319.562164,85.478012 
	C319.625458,76.686089 319.592255,76.678726 328.276154,77.279388 
	C328.727936,77.310631 329.159363,77.635681 329.611572,77.828766 
	C329.611572,93.237854 329.611572,108.563660 329.611572,125.296005 
	C321.629425,110.840248 313.918884,97.813797 307.179810,84.302811 
	C303.437439,76.799835 298.487396,73.765762 290.237946,74.382088 
	C286.010010,74.697952 284.961792,75.987686 285.005981,79.987846 
	C285.191956,96.818138 285.084381,113.651688 285.084381,130.484039 
	C285.084351,143.819016 285.084686,143.823288 298.548859,142.932571 
	C299.004517,142.902405 299.442413,142.603195 300.700073,142.113358 
	C300.700073,131.070740 300.700073,119.764465 300.700073,108.458199 
	C302.749146,109.842583 303.692932,111.343521 304.516144,112.907921 
	C308.703918,120.866173 312.742493,128.905579 317.065674,136.789124 
	C320.464630,142.987305 325.770844,144.660446 331.907135,141.869949 
	C331.779846,141.577255 331.725708,141.117813 331.511292,141.023743 
	C330.914795,140.762024 330.223236,140.435822 329.619293,140.515366 
	C323.104156,141.373535 320.118469,137.474808 317.556732,132.279846 
	C312.623413,122.275429 307.326080,112.449783 302.124237,102.579247 
	C301.362030,101.132950 300.295380,99.847107 299.369568,98.487030 
	C298.877075,98.638535 298.384583,98.790039 297.892090,98.941544 
	C297.892090,112.612549 297.892090,126.283546 297.892090,140.038727 
	C294.188354,140.038727 291.287842,140.038727 288.278717,140.038727 
	C288.278717,118.938019 288.278717,98.236862 288.278717,77.589989 
	C299.009735,76.369652 299.848541,76.773773 304.599976,85.403175 
	C312.472198,99.700455 320.314117,114.014481 328.216736,128.294922 
	C329.002106,129.714111 330.119080,130.949768 331.082153,132.270599 
	C331.574982,132.104416 332.067841,131.938232 332.560699,131.772049 
	C332.560699,127.342506 332.560699,122.912964 332.561432,117.489899 
M223.166641,139.392075 
	C215.396561,142.280045 213.598923,141.144730 213.562820,133.271744 
	C213.537628,127.773918 213.484055,122.274460 213.584747,116.778320 
	C213.676819,111.751602 212.390823,107.385086 209.039322,103.438454 
	C202.462296,95.693573 195.999069,87.837570 189.824905,79.770294 
	C185.896881,74.637886 181.167252,73.641312 174.972366,75.338470 
	C174.972366,77.231316 174.972351,79.044533 174.972351,80.857750 
	C174.972336,98.186989 174.842087,115.517555 175.017410,132.845016 
	C175.137451,144.709427 172.442856,142.759460 185.744034,143.074142 
	C188.902802,143.148880 189.761932,141.826080 189.735214,138.932007 
	C189.642853,128.935242 189.688446,118.937019 189.721725,108.939476 
	C189.726257,107.577652 189.959244,106.216583 190.164246,104.022438 
	C193.557190,107.973755 196.314957,111.185364 199.072739,114.396980 
	C199.675674,113.859772 200.278625,113.322563 200.881577,112.785355 
	C196.836441,107.811485 192.791306,102.837616 188.746170,97.863747 
	C188.196808,98.126083 187.647446,98.388420 187.098083,98.650757 
	C187.098083,112.370796 187.098083,126.090836 187.098083,139.653961 
	C178.004028,141.598709 177.538437,141.243332 177.537048,132.940582 
	C177.534271,116.444481 177.526627,99.948357 177.549118,83.452286 
	C177.551758,81.506798 177.730576,79.561554 177.830582,77.558922 
	C181.864914,76.695473 184.710007,77.567482 187.013321,80.598381 
	C190.036102,84.576012 192.860062,88.835999 196.489197,92.197601 
	C208.668350,103.478943 212.908691,117.098808 211.122711,133.476486 
	C210.083649,143.004959 210.937531,142.912796 220.830276,143.116806 
	C224.884949,143.200424 226.297943,142.133728 226.251694,137.869980 
	C226.040146,118.376877 226.166809,98.880188 226.142014,79.384819 
	C226.140198,77.955902 225.900650,76.527283 225.782364,75.217430 
	C215.877045,73.456223 206.849503,81.150002 206.619308,92.347351 
	C208.151794,90.310425 209.159714,89.141075 209.976181,87.850578 
	C211.756607,85.036407 213.030563,81.754723 215.310516,79.456940 
	C216.758316,77.997833 219.621811,77.697311 221.900436,77.520012 
	C222.346832,77.485275 223.512573,80.400543 223.518524,81.958366 
	C223.590286,100.785095 223.506439,119.612411 223.166641,139.392075 
M166.542236,91.503922 
	C166.542404,89.337791 166.583267,87.170769 166.535934,85.005676 
	C166.276505,73.139168 168.669006,74.784592 155.843124,74.521431 
	C152.644623,74.455818 151.433243,75.501038 151.431549,78.799332 
	C151.422836,95.817184 151.231430,112.834946 151.103455,129.892746 
	C154.093765,128.503723 153.953903,125.190422 153.984512,122.222862 
	C154.116852,109.392998 154.084839,96.561440 154.111038,83.730492 
	C154.115326,81.632042 154.111649,79.533585 154.111649,77.345032 
	C157.626419,77.345032 160.394577,77.345032 163.304474,77.345032 
	C163.497116,78.186127 163.765915,78.810173 163.764420,79.433571 
	C163.728607,94.429703 163.754471,109.427086 163.533432,124.420776 
	C163.485031,127.703880 162.843918,131.061707 161.932968,134.229004 
	C160.575134,138.950104 156.839966,140.557922 152.225815,140.303116 
	C147.867081,140.062408 145.719009,137.229660 144.937210,133.310150 
	C144.452759,130.881287 144.283798,128.355118 144.274323,125.871490 
	C144.216370,110.707565 144.253738,95.543297 144.232117,80.379189 
	C144.229584,78.607994 144.060165,76.837029 143.942398,74.571106 
	C140.152420,74.571106 136.840469,74.720879 133.548370,74.529251 
	C130.214722,74.335213 129.233932,75.791664 129.263855,78.956703 
	C129.396164,92.953041 129.132706,106.957039 129.508224,120.944962 
	C129.635208,125.674614 130.790405,130.510361 132.302155,135.020615 
	C133.258789,137.874649 135.261322,140.876450 139.957153,140.132904 
	C134.207428,136.328918 132.389435,130.612839 132.281082,124.583199 
	C132.002808,109.098846 132.192612,93.606033 132.225784,78.116661 
	C132.226318,77.864319 132.613281,77.612808 132.782120,77.406998 
	C135.600876,77.406998 138.373383,77.406998 141.732315,77.406998 
	C141.732315,80.020981 141.723022,82.316116 141.733810,84.611145 
	C141.807419,100.272827 141.726944,115.937691 142.043015,131.594513 
	C142.162155,137.496109 145.768784,141.739899 150.367294,142.812592 
	C155.372360,143.980133 161.063934,141.922852 163.275192,137.460617 
	C164.714905,134.555359 165.813187,131.183258 165.936935,127.976768 
	C166.392899,116.161903 166.378815,104.328903 166.542236,91.503922 
M19.011868,110.066444 
	C18.995760,119.726936 19.068357,129.388870 18.911354,139.047058 
	C18.862045,142.080429 19.873352,143.156693 22.933437,143.083191 
	C36.368771,142.760483 33.602928,144.824249 33.932045,132.546036 
	C33.963276,131.380905 33.936218,130.214218 33.936218,129.048248 
	C33.936218,125.758530 33.936214,122.468803 33.936214,119.179085 
	C34.525356,119.132042 35.114502,119.084999 35.703644,119.037956 
	C36.200336,120.539841 36.762417,122.023720 37.181881,123.546867 
	C38.639400,128.839432 39.897255,134.193863 41.574036,139.414612 
	C42.024586,140.817429 43.602245,142.735031 44.818340,142.856537 
	C49.059017,143.280228 53.367981,143.020447 58.350933,143.020447 
	C57.679874,140.559555 57.280128,138.823242 56.732777,137.134766 
	C54.732014,130.962784 52.577148,124.837860 50.733376,118.620178 
	C50.333366,117.271225 50.454193,115.224861 51.234325,114.156044 
	C56.753712,106.594116 57.605408,98.215904 55.849506,89.406242 
	C53.912716,79.688965 48.490105,75.114334 38.547661,74.694237 
	C33.392403,74.476418 28.217459,74.724777 23.062166,74.507378 
	C19.682423,74.364845 18.803961,75.821983 18.905640,78.962593 
	C19.099579,84.952698 18.931332,90.953835 18.988533,96.949669 
	C18.999855,98.136330 19.348930,99.319763 19.542246,100.504684 
	C20.215508,100.504646 20.888767,100.504601 21.562027,100.504562 
	C21.562027,96.892342 21.562027,93.280113 21.562027,89.667892 
	C21.562027,85.718117 21.562027,81.768341 21.562027,76.833145 
	C29.511381,77.277214 36.790852,77.389359 43.977001,78.266251 
	C46.109486,78.526474 48.435284,80.579269 49.888969,82.427071 
	C55.478168,89.531570 55.751637,104.206276 49.822006,111.096863 
	C46.962475,114.419807 47.171227,116.937943 48.396236,120.417915 
	C50.626831,126.754570 52.583168,133.187759 54.679134,139.658463 
	C45.037216,141.524780 44.811386,141.394028 42.513958,133.031738 
	C41.323971,128.700363 40.009598,124.395409 39.034401,120.015511 
	C38.371292,117.037277 36.754074,115.190704 33.924786,116.327705 
	C32.590481,116.863922 31.392702,119.403893 31.310057,121.093498 
	C31.004017,127.349976 31.188229,133.630432 31.188229,140.415176 
	C28.634138,140.415176 26.656500,140.881195 25.092560,140.276764 
	C23.686127,139.733215 21.777012,138.047150 21.735235,136.809494 
	C21.448845,128.324783 21.620089,119.825356 21.589874,111.330856 
	C21.579275,108.351135 23.102507,107.153809 25.923775,107.164818 
	C29.254751,107.177818 32.636669,107.473709 35.898827,106.989243 
	C37.993904,106.678093 40.914898,105.696327 41.725948,104.120018 
	C44.334160,99.050880 44.498146,93.486763 41.784409,88.299583 
	C40.092907,85.066360 33.518002,83.735359 31.756948,85.917229 
	C30.410166,87.585838 31.268927,96.739731 33.558582,99.339470 
	C33.806293,95.200134 34.016735,91.683571 34.225491,88.195183 
	C39.451969,88.221527 40.690197,89.614487 40.884995,95.318794 
	C41.110081,101.910080 39.765800,104.270454 35.309914,104.561722 
	C31.825039,104.789528 28.201653,104.181244 24.865469,104.938553 
	C22.730467,105.423203 21.005972,107.716278 19.011868,110.066444 
M364.210968,88.192879 
	C363.525574,87.730255 362.896790,87.124931 362.145996,86.827309 
	C355.441406,84.169495 353.021210,85.769859 353.018341,92.810783 
	C353.014893,101.304504 352.988464,109.798409 353.043854,118.291771 
	C353.054260,119.889732 353.401978,121.485504 353.594055,123.082283 
	C354.246368,123.051666 354.898712,123.021049 355.551025,122.990440 
	C355.551025,111.713287 355.551025,100.436142 355.551025,89.263000 
	C361.948242,88.880920 363.454712,89.548698 364.119324,94.685341 
	C364.947571,101.087135 365.239777,107.612633 365.115814,114.072289 
	C364.832367,128.839432 364.379608,129.118317 349.738556,128.955338 
	C343.917206,128.890533 343.200378,128.230698 343.181274,122.269928 
	C343.137451,108.613495 343.155426,94.956818 343.185181,81.300308 
	C343.187927,80.036766 343.454407,78.773796 343.658203,76.986313 
	C349.961121,77.284866 355.935608,77.399025 361.878052,77.896645 
	C367.862549,78.397789 372.439789,81.744041 374.658630,87.077423 
	C380.832825,101.918274 380.714355,116.918571 373.926514,131.581528 
	C371.350067,137.147034 366.575012,140.064514 360.340485,140.222763 
	C355.347961,140.349472 350.351318,140.317413 345.359436,140.458939 
	C343.924622,140.499619 342.499908,140.898224 341.070587,141.132706 
	C341.111847,141.767654 341.153107,142.402588 341.194336,143.037537 
	C346.867950,143.037537 352.543060,142.953323 358.214813,143.056458 
	C367.680054,143.228561 374.323364,138.806946 377.635010,130.196167 
	C383.028198,116.173027 383.096466,101.852982 377.950104,87.720261 
	C375.367676,80.628494 370.024689,76.069489 362.445282,75.201416 
	C356.349701,74.503273 350.143463,74.575813 343.995178,74.710968 
	C342.865692,74.735802 340.827515,76.687286 340.815125,77.767853 
	C340.634003,93.586021 340.634521,109.408714 340.875061,125.226006 
	C340.903229,127.078796 342.537354,130.445023 343.555023,130.494873 
	C350.069855,130.813980 356.677032,130.815079 363.118774,129.933609 
	C364.685120,129.719284 366.684601,125.886925 366.870636,123.587563 
	C367.539764,115.317375 367.826630,106.983131 367.606476,98.690384 
	C367.518005,95.358734 365.743195,92.071861 364.210968,88.192879 
M235.660690,102.933998 
	C234.664734,121.485260 237.824646,135.219269 244.267807,138.914337 
	C244.192062,137.945175 244.356110,137.107254 244.046921,136.517426 
	C236.331314,121.798813 236.888809,106.288315 240.112411,90.724960 
	C242.123169,81.017189 248.116516,76.330063 256.675842,76.401558 
	C264.330200,76.465500 270.179962,80.984085 271.774506,90.381172 
	C273.318298,99.479301 273.853210,108.913208 273.395569,118.128342 
	C273.092010,124.242043 270.683929,130.394470 268.418396,136.218536 
	C266.838074,140.281097 262.989014,141.819366 258.468506,141.117844 
	C254.109604,140.441345 252.464600,137.013687 252.390549,133.600143 
	C252.098419,120.133369 252.199905,106.651184 252.564575,93.185806 
	C252.609741,91.518173 255.109360,89.917007 256.471619,88.285034 
	C257.633606,89.935623 259.648529,91.501938 259.821259,93.250267 
	C261.087799,106.068619 262.154755,118.932846 257.646454,132.250412 
	C261.783234,131.163498 262.666779,128.001160 262.731903,125.132057 
	C262.969757,114.651756 262.891754,104.160454 262.696442,93.677696 
	C262.661133,91.783623 261.817322,89.724930 260.812012,88.066414 
	C258.780792,84.715477 254.293213,84.482109 252.009781,87.674759 
	C250.806595,89.357025 249.780670,91.597656 249.738281,93.608589 
	C249.461456,106.745720 249.081360,119.903313 249.558044,133.024323 
	C249.803696,139.786407 253.190018,143.061859 258.029449,143.912460 
	C263.696045,144.908432 268.890503,142.643936 271.325592,136.549530 
	C273.760376,130.455856 275.642395,123.916260 276.371948,117.415604 
	C277.677399,105.783951 277.417816,94.098068 272.074402,83.191269 
	C268.778320,76.463409 263.159180,73.560249 255.871796,73.609131 
	C248.733185,73.657005 242.854706,76.644981 240.281662,83.267242 
	C237.972458,89.210518 237.194489,95.748749 235.660690,102.933998 
M399.458588,140.417435 
	C397.498383,140.417435 395.538177,140.417435 393.732758,140.417435 
	C393.491608,139.527115 393.278015,139.187485 393.342865,138.913788 
	C397.982788,119.324600 402.676056,99.747978 407.282196,80.150879 
	C408.363098,75.552116 411.931305,77.579422 414.567749,77.210724 
	C417.242401,76.836693 419.273804,77.260574 420.013763,80.644897 
	C422.180939,90.556938 424.687134,100.394676 427.043152,110.265671 
	C429.383057,120.069199 431.701843,129.877762 434.032959,139.697174 
	C425.167938,141.442230 424.729309,141.166519 423.269012,133.325821 
	C423.086243,132.344376 423.169159,131.266312 422.787811,130.379776 
	C422.176697,128.959305 421.490570,126.737526 420.460815,126.503128 
	C418.271393,126.004745 415.840607,126.566711 413.508728,126.694038 
	C413.543854,127.286285 413.578979,127.878532 413.614075,128.470779 
	C415.622437,128.762085 417.630798,129.053406 419.750336,129.360855 
	C420.514130,133.123337 421.072327,136.743729 422.063293,140.241531 
	C422.373993,141.338211 423.793365,142.817230 424.801788,142.896698 
	C428.724091,143.205765 432.685211,143.022614 437.275574,143.022614 
	C436.854126,140.706650 436.638885,139.112991 436.269348,137.555954 
	C432.081757,119.911400 427.902649,102.264694 423.653442,84.634926 
	C421.158051,74.281570 421.103790,74.424889 410.420013,74.464668 
	C406.951385,74.477585 405.528564,75.618637 404.736572,79.062737 
	C400.150696,99.005104 395.290558,118.884338 390.561523,138.794022 
	C390.278900,139.983856 390.327271,141.252304 390.173737,143.042282 
	C394.175201,143.042282 397.653809,142.837006 401.095886,143.103714 
	C404.149109,143.340271 405.231567,141.952682 405.639801,139.226501 
	C406.206299,135.443573 406.963043,131.688263 407.675842,127.928253 
	C409.413300,118.763443 409.422302,118.768890 418.740265,117.948982 
	C419.028992,117.923584 419.294617,117.635307 420.234375,117.071854 
	C418.395111,107.233597 416.510132,97.150818 414.625183,87.068039 
	C413.909119,87.074478 413.193085,87.080925 412.477051,87.087364 
	C411.059357,94.698654 409.641663,102.309937 408.223969,109.921227 
	C409.024719,110.092392 409.825439,110.263550 410.626190,110.434708 
	C411.523621,106.257500 412.421082,102.080292 413.318512,97.903084 
	C413.524902,97.891365 413.731293,97.879646 413.937683,97.867928 
	C414.979492,103.495583 416.021332,109.123238 417.057648,114.721146 
	C406.698822,117.165741 406.712402,117.168060 405.071442,126.758240 
	C404.482147,130.202011 403.997192,133.682755 403.079590,137.041428 
	C402.733093,138.309738 401.299133,139.280960 399.458588,140.417435 
M105.771088,121.795273 
	C104.508507,133.400894 95.753838,125.748253 90.597168,127.783936 
	C90.605003,127.775291 90.401070,127.893906 90.394325,128.022842 
	C89.622864,142.759430 87.676758,142.035233 102.184021,142.909607 
	C114.500992,143.651947 120.369942,138.880844 120.785767,127.354660 
	C121.379974,110.883560 121.096802,94.379120 121.028206,77.889595 
	C121.023682,76.801346 119.728256,74.841171 118.921158,74.780609 
	C114.716301,74.465065 110.475128,74.633514 105.758591,74.633514 
	C105.936287,78.471199 106.069916,81.357269 106.203545,84.243332 
	C106.762123,84.255196 107.320694,84.267059 107.879272,84.278923 
	C108.114746,82.911827 108.487068,81.551933 108.559395,80.176270 
	C108.756760,76.422173 111.554283,77.343361 113.718208,77.269531 
	C115.853027,77.196693 118.292236,76.863686 118.266190,80.230461 
	C118.139885,96.551323 118.350807,112.884277 117.754753,129.187820 
	C117.477448,136.772934 112.825577,140.204407 105.081917,140.339554 
	C103.253723,140.371460 101.418327,140.248779 99.592499,140.113113 
	C92.094604,139.555908 91.430901,138.576996 93.447792,130.915802 
	C95.020790,130.915802 96.646996,130.884399 98.271660,130.921173 
	C105.946442,131.094879 108.119461,129.210480 108.413147,121.428963 
	C108.651749,115.107315 108.504128,108.771271 108.538055,102.441666 
	C108.565201,97.378723 107.063271,91.513474 114.771614,90.420212 
	C114.793549,90.417099 114.774323,90.123795 114.778694,89.966026 
	C109.144279,87.855888 106.086105,89.608871 105.944633,95.412628 
	C105.737671,103.903542 105.838783,112.401947 105.771088,121.795273 
M456.274658,84.536926 
	C456.285126,88.864441 456.295410,93.191956 456.306122,97.519470 
	C456.316864,101.847054 456.283081,106.175346 456.352142,110.501999 
	C456.416565,114.539131 456.590515,118.574509 456.716278,122.610649 
	C458.426239,122.174538 458.894501,121.791519 458.896210,121.406441 
	C458.960754,106.761772 459.031464,92.116470 458.897888,77.473122 
	C458.889160,76.513435 457.331940,74.820473 456.394653,74.746834 
	C452.465271,74.438156 448.497650,74.616570 444.680878,74.616570 
	C444.336792,75.679573 444.057770,76.140999 444.056610,76.603104 
	C444.016937,92.580688 443.969574,108.558418 444.007721,124.535919 
	C444.018677,129.119415 446.667114,131.024139 451.077118,130.990662 
	C457.847290,130.939255 464.618103,130.977142 471.569672,130.977142 
	C471.569672,134.339279 471.569672,137.067947 471.569672,140.961670 
	C462.309479,140.961670 453.351807,140.961670 444.394135,140.961670 
	C444.413818,141.654175 444.433533,142.346695 444.453217,143.039200 
	C451.162598,143.039200 457.871979,143.039215 464.581360,143.039200 
	C475.114960,143.039169 475.009766,143.042831 474.641571,132.494141 
	C474.529541,129.285126 473.428772,128.052002 470.196136,128.141464 
	C464.208740,128.307159 458.207001,128.015869 452.223541,128.241638 
	C448.175385,128.394394 446.497620,126.907318 446.532867,122.794479 
	C446.649872,109.146965 446.679321,95.496384 446.500641,81.850136 
	C446.449982,77.979149 448.014435,76.772804 451.550629,77.215614 
	C452.852844,77.378685 454.171417,77.410942 455.989105,77.538368 
	C456.088867,79.646461 456.181091,81.595665 456.274658,84.536926 
M78.963531,107.500000 
	C78.963531,118.279884 78.963531,129.059769 78.963531,139.707962 
	C69.570641,141.471527 69.221741,141.193268 69.220596,132.535629 
	C69.219185,121.874092 69.418060,111.207260 69.132500,100.553375 
	C69.000534,95.629662 69.421364,91.689812 75.333832,90.931221 
	C75.421631,90.919952 75.440125,90.368622 75.488853,90.068977 
	C69.880043,87.942070 66.795082,89.953529 66.725441,96.346725 
	C66.565781,111.004082 66.672852,125.664459 66.709488,140.323517 
	C66.711433,141.100006 67.063187,141.875610 67.290237,142.808350 
	C71.911293,142.808350 76.356781,142.808350 81.256088,142.808350 
	C81.395515,140.654510 81.628098,138.706116 81.631195,136.757339 
	C81.659500,118.932625 81.679642,101.107780 81.635422,83.283127 
	C81.611084,73.473541 82.708611,74.588615 72.765297,74.535431 
	C66.262177,74.500648 64.529182,78.074493 68.011185,84.197807 
	C71.684181,76.366371 71.941277,76.216927 78.963524,78.216461 
	C78.963524,87.555946 78.963524,97.027969 78.963531,107.500000 
M78.471169,336.676178 
	C75.895897,330.345398 77.414368,325.301178 82.678940,322.698242 
	C87.469994,320.329498 93.121765,321.790405 95.901566,326.116119 
	C99.095276,331.085876 97.841217,335.919647 92.443253,340.376587 
	C91.487129,341.166016 91.115753,342.663666 90.474365,343.834290 
	C91.933197,343.881256 93.656891,344.459076 94.806198,343.885651 
	C100.565720,341.011993 103.307426,333.977722 101.419327,327.690582 
	C99.427078,321.056671 93.485886,316.751312 86.802605,317.098389 
	C79.831184,317.460419 73.903297,322.654053 72.898972,329.279846 
	C71.998428,335.220947 74.615440,341.208710 79.574989,343.733826 
	C80.745018,344.329529 82.468475,343.838257 83.937355,343.847015 
	C83.366051,342.657410 82.970909,341.330078 82.176849,340.314667 
	C81.274826,339.161133 80.016068,338.286591 78.471169,336.676178 
z"/>
<path fill="#E4F87A" opacity="1.000000" stroke="none" 
	d="
M371.168762,305.797119 
	C373.448486,303.122070 375.046356,303.743530 375.082794,306.661835 
	C375.232574,318.654755 375.197113,330.651733 375.001892,342.643524 
	C374.988129,343.487366 373.147186,344.988037 372.122833,345.017090 
	C365.631836,345.201263 359.122650,345.219727 352.642456,344.868500 
	C351.492218,344.806183 350.184326,342.901337 349.450226,341.570862 
	C348.954773,340.672882 349.330353,339.289795 349.330292,338.123688 
	C349.328857,303.803802 349.325928,269.483917 349.331940,235.164017 
	C349.333130,228.344910 349.349396,228.340851 356.358826,228.330643 
	C361.023651,228.323837 365.696045,228.494003 370.350952,228.279556 
	C374.042633,228.109451 375.282043,229.493271 375.245758,233.203552 
	C375.089478,249.195755 375.165771,265.190399 375.188965,281.184113 
	C375.204468,291.897034 376.287628,292.975739 386.795135,293.007904 
	C393.275574,293.027740 393.285217,293.027771 393.288544,299.658112 
	C393.295319,313.131134 393.290588,326.604126 393.290588,340.487427 
	C399.085358,340.487427 404.464661,340.487427 410.272217,340.487427 
	C410.272217,304.790192 410.272217,269.117706 410.272217,233.190308 
	C404.641052,233.190308 399.227295,233.190308 393.290802,233.190308 
	C393.290802,235.459885 393.291229,237.422775 393.290741,239.385666 
	C393.287201,252.880356 393.331726,266.375549 393.193970,279.868866 
	C393.182159,281.027557 391.960358,282.173859 391.300598,283.325897 
	C390.550568,282.250763 389.156738,281.181244 389.147247,280.099609 
	C389.006927,264.107147 389.076233,248.112961 389.026398,232.119400 
	C389.017426,229.244873 390.494110,228.321457 393.071472,228.332016 
	C399.069000,228.356598 405.066895,228.371292 411.064209,228.329208 
	C414.075836,228.308075 415.064697,229.774536 415.060120,232.685455 
	C415.003693,268.671265 414.997375,304.657257 415.069580,340.643005 
	C415.075958,343.826477 414.064697,345.176483 410.759705,345.076050 
	C405.100464,344.904083 399.423492,344.837952 393.770844,345.096680 
	C389.921539,345.272858 388.937195,343.679108 388.982330,340.103149 
	C389.137939,327.776642 389.041718,315.446899 389.041473,303.118408 
	C389.041412,301.322327 389.041504,299.526276 389.041504,297.438751 
	C386.591980,297.315552 384.622284,297.214996 382.652496,297.117645 
	C374.360565,296.707916 371.136810,293.462860 371.061646,284.801727 
	C370.928589,269.475525 371.009827,254.147446 371.001648,238.820160 
	C371.000671,237.030090 371.001495,235.240005 371.001495,233.168655 
	C365.117126,233.168655 359.727509,233.168655 354.048035,233.168655 
	C354.048035,269.032013 354.048035,304.610931 354.048035,340.546143 
	C359.541077,340.546143 364.939758,340.546143 371.067078,340.546143 
	C371.067078,329.070465 371.067078,317.640778 371.168762,305.797119 
z"/>
<path fill="#E5F97A" opacity="1.000000" stroke="none" 
	d="
M330.019714,267.184570 
	C328.251221,260.006348 327.192596,252.991791 324.596313,246.602005 
	C320.724976,237.074341 313.172638,231.568726 302.633026,231.117920 
	C291.692780,230.649979 283.304108,235.183304 277.771393,244.735840 
	C272.650238,253.577820 270.749207,263.314850 269.748718,273.331787 
	C268.348389,287.352600 268.356506,301.375977 271.983124,315.010315 
	C273.696533,321.451721 277.416595,327.349976 280.093903,333.551971 
	C280.664520,334.873779 280.655609,336.445801 280.913696,337.902527 
	C279.454407,337.330872 277.504547,337.173492 276.615295,336.120453 
	C270.739410,329.162109 267.981445,320.754303 266.728394,311.942902 
	C263.677094,290.486542 263.054138,269.078339 271.091705,248.416229 
	C277.373077,232.268677 289.121002,225.174500 305.811920,226.951950 
	C315.522217,227.986053 322.368347,233.403442 327.145264,241.657425 
	C332.278381,250.526932 333.969757,260.369934 334.657532,270.377991 
	C334.751251,271.741882 332.672882,274.339417 331.334167,274.533783 
	C324.754974,275.489227 318.080902,275.773651 311.450684,276.403595 
	C308.194977,276.712921 307.523621,274.884705 307.333771,272.193878 
	C306.982941,267.222412 306.853271,262.177856 305.816498,257.338318 
	C305.348663,255.154587 303.249756,252.236938 301.316498,251.692764 
	C298.040558,250.770660 295.652039,253.444702 294.982910,256.654144 
	C293.832001,262.174347 292.353760,267.775635 292.317749,273.351349 
	C292.202698,291.154785 292.551697,308.965546 293.010345,326.766083 
	C293.181610,333.415192 295.439056,339.420990 302.421997,341.835480 
	C308.616516,343.977448 316.512115,340.456879 320.942535,333.872284 
	C326.478638,325.644318 328.735229,316.372162 329.385803,306.081177 
	C323.557220,305.606812 317.993713,305.153992 312.050720,304.670319 
	C311.660248,308.610565 311.790283,312.176117 310.853638,315.435120 
	C309.832703,318.987335 307.930908,322.314362 306.141083,325.590973 
	C305.829895,326.160645 303.902252,326.442688 303.216431,326.031525 
	C302.625183,325.677032 302.213165,323.630463 302.621735,323.213379 
	C307.632080,318.098450 307.200653,311.608246 307.138580,305.334412 
	C307.097198,301.150238 308.543213,299.629822 312.732147,300.089355 
	C318.521851,300.724487 324.349670,301.033203 330.166901,301.387238 
	C333.053711,301.562927 334.332458,302.788971 334.043060,305.813995 
	C333.067596,316.011017 331.123413,325.925964 325.680695,334.802094 
	C321.956940,340.874939 316.800720,345.066040 309.587860,346.421448 
	C300.547974,348.120178 292.057251,343.332031 290.104553,334.317810 
	C288.601776,327.380493 287.839264,320.146729 287.846252,313.045837 
	C287.862549,296.579834 288.360840,280.106323 289.091644,263.654877 
	C289.263092,259.795319 290.781250,255.862793 292.314301,252.231735 
	C294.040955,248.142151 297.664337,246.500839 302.095245,246.763763 
	C306.474487,247.023621 308.767334,249.971512 309.616913,253.671783 
	C310.910706,259.306641 311.537079,265.094696 312.565735,271.565430 
	C317.577850,271.170685 322.812378,270.863464 328.008118,270.235077 
	C328.779785,270.141754 329.368347,268.534607 330.019714,267.184570 
z"/>
<path fill="#E4F87A" opacity="1.000000" stroke="none" 
	d="
M194.949280,271.995483 
	C194.945343,276.659851 195.099274,280.835754 194.829224,284.984070 
	C194.759583,286.053925 193.357635,287.037018 192.567734,288.059967 
	C191.955505,287.039185 190.815598,286.021515 190.809494,284.997131 
	C190.703094,267.168915 190.665466,249.338943 190.904373,231.513275 
	C190.919510,230.383774 193.310272,228.334686 194.616364,228.317978 
	C211.609436,228.100739 228.606369,228.211075 245.601959,228.142197 
	C248.955872,228.128601 249.924789,229.762482 249.859222,232.801636 
	C249.751404,237.798065 249.684753,242.804352 249.881607,247.795395 
	C250.022125,251.357895 248.500275,252.412308 245.126068,252.356552 
	C235.977280,252.205307 226.824356,252.304672 217.210541,252.304672 
	C217.210541,259.539429 217.210541,266.426422 217.210541,274.120636 
	C223.478577,274.120636 229.914963,274.329498 236.329773,274.047546 
	C240.641479,273.858032 242.420364,275.237915 242.074799,279.719482 
	C241.742722,284.026184 241.825455,288.388031 242.057114,292.707886 
	C242.250031,296.305267 240.719055,297.296204 237.347137,297.248383 
	C227.018417,297.101929 216.686066,297.161560 206.355469,297.210541 
	C197.886795,297.250671 194.970871,300.213409 194.954514,308.690216 
	C194.934296,319.174805 194.949677,329.659424 194.949677,340.521881 
	C211.777725,340.521881 228.313004,340.521881 244.716080,340.521881 
	C244.935150,340.174194 245.075821,340.047668 245.096970,339.903595 
	C247.192413,325.636658 246.973328,325.375580 232.986633,325.374084 
	C227.487976,325.373505 221.986526,325.260437 216.491714,325.404205 
	C213.228897,325.489532 211.989853,324.134918 212.124954,320.945404 
	C212.279999,317.286011 211.987350,313.599945 212.293274,309.959412 
	C212.384033,308.879395 213.838120,307.913940 214.667465,306.895966 
	C215.346924,307.893982 216.537811,308.855408 216.612274,309.896729 
	C216.859726,313.356812 216.705826,316.845612 216.705826,321.009064 
	C225.874435,321.009064 234.658951,321.286255 243.414505,320.902863 
	C248.494583,320.680420 250.341888,322.315643 249.912735,327.394501 
	C249.535294,331.861664 249.762650,336.387085 249.853088,340.884125 
	C249.911316,343.779480 248.859192,345.087006 245.766724,345.070465 
	C228.771332,344.979584 211.774887,344.975494 194.779602,345.076294 
	C191.728439,345.094391 190.654831,343.970703 190.680511,340.986847 
	C190.780838,329.323914 190.584442,317.656982 190.799347,305.997070 
	C190.945694,298.057373 196.180389,293.129181 204.265625,293.043152 
	C215.242813,292.926331 226.222153,293.014069 237.507843,293.014069 
	C237.507843,288.200592 237.507843,283.793457 237.507843,278.689209 
	C230.933014,278.689209 224.463425,278.452271 218.020966,278.768250 
	C213.319305,278.998871 211.862701,277.178436 212.078430,272.646027 
	C212.387024,266.162292 212.323761,259.647095 212.096329,253.156662 
	C211.956863,249.176758 213.524612,247.913864 217.383530,247.997757 
	C226.506256,248.196060 235.636215,248.061432 245.098755,248.061432 
	C245.098755,242.839661 245.098755,238.125900 245.098755,233.084015 
	C228.431854,233.084015 212.024979,233.084015 194.949280,233.084015 
	C194.949280,245.956512 194.949280,258.726654 194.949280,271.995483 
z"/>
<path fill="#D9F483" opacity="1.000000" stroke="none" 
	d="
M131.031311,249.031555 
	C136.858078,249.033951 142.191803,248.970932 147.523224,249.054413 
	C155.123001,249.173416 158.570175,252.316803 158.837891,259.976196 
	C159.122971,268.132324 158.952530,276.304840 158.956497,284.470215 
	C158.965393,302.801361 158.838654,321.133911 159.046844,339.462677 
	C159.096573,343.840790 157.786026,345.422302 153.359207,345.140503 
	C148.047958,344.802399 142.695786,344.949432 137.367386,345.100159 
	C134.340134,345.185852 133.175140,343.942657 133.179626,340.996918 
	C133.217117,316.333252 133.166534,291.669312 133.293320,267.006256 
	C133.300003,265.701294 134.668259,264.403381 135.402649,263.102173 
	C136.176651,264.702057 137.613892,266.297516 137.624649,267.902527 
	C137.773315,290.065552 137.725922,312.229919 137.726501,334.393951 
	C137.726547,336.351227 137.726501,338.308502 137.726501,340.564453 
	C143.364746,340.564453 148.444473,340.564453 153.993698,340.564453 
	C154.116669,338.881775 154.333496,337.286224 154.334869,335.690521 
	C154.355682,311.526733 154.370529,287.362885 154.335846,263.199158 
	C154.323044,254.277863 153.655731,253.673294 144.589645,253.653290 
	C136.923920,253.636368 129.255112,253.519913 121.593658,253.701035 
	C117.806633,253.790558 116.058716,252.568832 116.223061,248.557831 
	C116.441185,243.233978 116.344643,237.893661 116.260468,232.562347 
	C116.210732,229.412186 117.509415,228.076065 120.735268,228.090652 
	C137.732895,228.167526 154.731232,228.164764 171.728851,228.088150 
	C174.832260,228.074173 176.340942,229.041016 176.247711,232.392365 
	C176.085541,238.220474 176.330307,244.061249 176.108047,249.885391 
	C176.056305,251.241348 174.996292,253.518387 174.084015,253.689911 
	C171.928970,254.095078 169.583710,253.488541 167.315369,253.291138 
	C167.440948,252.167633 167.161667,250.576385 167.789398,250.033081 
	C168.673920,249.267563 170.230347,249.278412 171.608368,248.929733 
	C171.608368,243.690521 171.608368,238.593506 171.608368,233.153259 
	C154.792297,233.153259 138.216446,233.153259 121.222687,233.153259 
	C121.222687,238.224274 121.222687,243.275330 121.222687,249.031555 
	C124.325462,249.031555 127.431343,249.031555 131.031311,249.031555 
z"/>
<path fill="#EEF9FF" opacity="1.000000" stroke="none" 
	d="
M332.561066,117.986664 
	C332.560699,122.912964 332.560699,127.342506 332.560699,131.772049 
	C332.067841,131.938232 331.574982,132.104416 331.082153,132.270599 
	C330.119080,130.949768 329.002106,129.714111 328.216736,128.294922 
	C320.314117,114.014481 312.472198,99.700455 304.599976,85.403175 
	C299.848541,76.773773 299.009735,76.369652 288.278717,77.589989 
	C288.278717,98.236862 288.278717,118.938019 288.278717,140.038727 
	C291.287842,140.038727 294.188354,140.038727 297.892090,140.038727 
	C297.892090,126.283546 297.892090,112.612549 297.892090,98.941544 
	C298.384583,98.790039 298.877075,98.638535 299.369568,98.487030 
	C300.295380,99.847107 301.362030,101.132950 302.124237,102.579247 
	C307.326080,112.449783 312.623413,122.275429 317.556732,132.279846 
	C320.118469,137.474808 323.104156,141.373535 329.619293,140.515366 
	C330.223236,140.435822 330.914795,140.762024 331.511292,141.023743 
	C331.725708,141.117813 331.779846,141.577255 331.903503,141.871521 
	C325.770844,144.660446 320.464630,142.987305 317.065674,136.789124 
	C312.742493,128.905579 308.703918,120.866173 304.516144,112.907921 
	C303.692932,111.343521 302.749146,109.842583 300.700073,108.458199 
	C300.700073,119.764465 300.700073,131.070740 300.700073,142.113358 
	C299.442413,142.603195 299.004517,142.902405 298.548859,142.932571 
	C285.084686,143.823288 285.084351,143.819016 285.084381,130.484039 
	C285.084381,113.651688 285.191956,96.818138 285.005981,79.987846 
	C284.961792,75.987686 286.010010,74.697952 290.237946,74.382088 
	C298.487396,73.765762 303.437439,76.799835 307.179810,84.302811 
	C313.918884,97.813797 321.629425,110.840248 329.611572,125.296005 
	C329.611572,108.563660 329.611572,93.237854 329.611572,77.828766 
	C329.159363,77.635681 328.727936,77.310631 328.276154,77.279388 
	C319.592255,76.678726 319.625458,76.686089 319.562164,85.478012 
	C319.545288,87.816307 319.252502,90.152603 319.086365,92.489822 
	C318.577881,92.475006 318.069397,92.460190 317.560913,92.445374 
	C317.560913,86.709320 317.560913,80.973267 317.560913,74.594810 
	C321.647705,74.594810 325.811737,74.302032 329.880280,74.795929 
	C330.927521,74.923073 332.418640,77.514442 332.442108,78.993835 
	C332.645599,91.823265 332.560608,104.657257 332.561066,117.986664 
z"/>
<path fill="#F3FBFF" opacity="1.000000" stroke="none" 
	d="
M223.314880,138.915833 
	C223.506439,119.612411 223.590286,100.785095 223.518524,81.958366 
	C223.512573,80.400543 222.346832,77.485275 221.900436,77.520012 
	C219.621811,77.697311 216.758316,77.997833 215.310516,79.456940 
	C213.030563,81.754723 211.756607,85.036407 209.976181,87.850578 
	C209.159714,89.141075 208.151794,90.310425 206.619308,92.347351 
	C206.849503,81.150002 215.877045,73.456223 225.782364,75.217430 
	C225.900650,76.527283 226.140198,77.955902 226.142014,79.384819 
	C226.166809,98.880188 226.040146,118.376877 226.251694,137.869980 
	C226.297943,142.133728 224.884949,143.200424 220.830276,143.116806 
	C210.937531,142.912796 210.083649,143.004959 211.122711,133.476486 
	C212.908691,117.098808 208.668350,103.478943 196.489197,92.197601 
	C192.860062,88.835999 190.036102,84.576012 187.013321,80.598381 
	C184.710007,77.567482 181.864914,76.695473 177.830582,77.558922 
	C177.730576,79.561554 177.551758,81.506798 177.549118,83.452286 
	C177.526627,99.948357 177.534271,116.444481 177.537048,132.940582 
	C177.538437,141.243332 178.004028,141.598709 187.098083,139.653961 
	C187.098083,126.090836 187.098083,112.370796 187.098083,98.650757 
	C187.647446,98.388420 188.196808,98.126083 188.746170,97.863747 
	C192.791306,102.837616 196.836441,107.811485 200.881577,112.785355 
	C200.278625,113.322563 199.675674,113.859772 199.072739,114.396980 
	C196.314957,111.185364 193.557190,107.973755 190.164246,104.022438 
	C189.959244,106.216583 189.726257,107.577652 189.721725,108.939476 
	C189.688446,118.937019 189.642853,128.935242 189.735214,138.932007 
	C189.761932,141.826080 188.902802,143.148880 185.744034,143.074142 
	C172.442856,142.759460 175.137451,144.709427 175.017410,132.845016 
	C174.842087,115.517555 174.972336,98.186989 174.972351,80.857750 
	C174.972351,79.044533 174.972366,77.231316 174.972366,75.338470 
	C181.167252,73.641312 185.896881,74.637886 189.824905,79.770294 
	C195.999069,87.837570 202.462296,95.693573 209.039322,103.438454 
	C212.390823,107.385086 213.676819,111.751602 213.584747,116.778320 
	C213.484055,122.274460 213.537628,127.773918 213.562820,133.271744 
	C213.598923,141.144730 215.396561,142.280045 223.314880,138.915833 
z"/>
<path fill="#F2FAFF" opacity="1.000000" stroke="none" 
	d="
M166.541885,92.003326 
	C166.378815,104.328903 166.392899,116.161903 165.936935,127.976768 
	C165.813187,131.183258 164.714905,134.555359 163.275192,137.460617 
	C161.063934,141.922852 155.372360,143.980133 150.367294,142.812592 
	C145.768784,141.739899 142.162155,137.496109 142.043015,131.594513 
	C141.726944,115.937691 141.807419,100.272827 141.733810,84.611145 
	C141.723022,82.316116 141.732315,80.020981 141.732315,77.406998 
	C138.373383,77.406998 135.600876,77.406998 132.782120,77.406998 
	C132.613281,77.612808 132.226318,77.864319 132.225784,78.116661 
	C132.192612,93.606033 132.002808,109.098846 132.281082,124.583199 
	C132.389435,130.612839 134.207428,136.328918 139.957153,140.132904 
	C135.261322,140.876450 133.258789,137.874649 132.302155,135.020615 
	C130.790405,130.510361 129.635208,125.674614 129.508224,120.944962 
	C129.132706,106.957039 129.396164,92.953041 129.263855,78.956703 
	C129.233932,75.791664 130.214722,74.335213 133.548370,74.529251 
	C136.840469,74.720879 140.152420,74.571106 143.942398,74.571106 
	C144.060165,76.837029 144.229584,78.607994 144.232117,80.379189 
	C144.253738,95.543297 144.216370,110.707565 144.274323,125.871490 
	C144.283798,128.355118 144.452759,130.881287 144.937210,133.310150 
	C145.719009,137.229660 147.867081,140.062408 152.225815,140.303116 
	C156.839966,140.557922 160.575134,138.950104 161.932968,134.229004 
	C162.843918,131.061707 163.485031,127.703880 163.533432,124.420776 
	C163.754471,109.427086 163.728607,94.429703 163.764420,79.433571 
	C163.765915,78.810173 163.497116,78.186127 163.304474,77.345032 
	C160.394577,77.345032 157.626419,77.345032 154.111649,77.345032 
	C154.111649,79.533585 154.115326,81.632042 154.111038,83.730492 
	C154.084839,96.561440 154.116852,109.392998 153.984512,122.222862 
	C153.953903,125.190422 154.093765,128.503723 151.103455,129.892746 
	C151.231430,112.834946 151.422836,95.817184 151.431549,78.799332 
	C151.433243,75.501038 152.644623,74.455818 155.843124,74.521431 
	C168.669006,74.784592 166.276505,73.139168 166.535934,85.005676 
	C166.583267,87.170769 166.542404,89.337791 166.541885,92.003326 
z"/>
<path fill="#EEF9FF" opacity="1.000000" stroke="none" 
	d="
M19.054657,109.632538 
	C21.005972,107.716278 22.730467,105.423203 24.865469,104.938553 
	C28.201653,104.181244 31.825039,104.789528 35.309914,104.561722 
	C39.765800,104.270454 41.110081,101.910080 40.884995,95.318794 
	C40.690197,89.614487 39.451969,88.221527 34.225491,88.195183 
	C34.016735,91.683571 33.806293,95.200134 33.558582,99.339470 
	C31.268927,96.739731 30.410166,87.585838 31.756948,85.917229 
	C33.518002,83.735359 40.092907,85.066360 41.784409,88.299583 
	C44.498146,93.486763 44.334160,99.050880 41.725948,104.120018 
	C40.914898,105.696327 37.993904,106.678093 35.898827,106.989243 
	C32.636669,107.473709 29.254751,107.177818 25.923775,107.164818 
	C23.102507,107.153809 21.579275,108.351135 21.589874,111.330856 
	C21.620089,119.825356 21.448845,128.324783 21.735235,136.809494 
	C21.777012,138.047150 23.686127,139.733215 25.092560,140.276764 
	C26.656500,140.881195 28.634138,140.415176 31.188229,140.415176 
	C31.188229,133.630432 31.004017,127.349976 31.310057,121.093498 
	C31.392702,119.403893 32.590481,116.863922 33.924786,116.327705 
	C36.754074,115.190704 38.371292,117.037277 39.034401,120.015511 
	C40.009598,124.395409 41.323971,128.700363 42.513958,133.031738 
	C44.811386,141.394028 45.037216,141.524780 54.679134,139.658463 
	C52.583168,133.187759 50.626831,126.754570 48.396236,120.417915 
	C47.171227,116.937943 46.962475,114.419807 49.822006,111.096863 
	C55.751637,104.206276 55.478168,89.531570 49.888969,82.427071 
	C48.435284,80.579269 46.109486,78.526474 43.977001,78.266251 
	C36.790852,77.389359 29.511381,77.277214 21.562027,76.833145 
	C21.562027,81.768341 21.562027,85.718117 21.562027,89.667892 
	C21.562027,93.280113 21.562027,96.892342 21.562027,100.504562 
	C20.888767,100.504601 20.215508,100.504646 19.542246,100.504684 
	C19.348930,99.319763 18.999855,98.136330 18.988533,96.949669 
	C18.931332,90.953835 19.099579,84.952698 18.905640,78.962593 
	C18.803961,75.821983 19.682423,74.364845 23.062166,74.507378 
	C28.217459,74.724777 33.392403,74.476418 38.547661,74.694237 
	C48.490105,75.114334 53.912716,79.688965 55.849506,89.406242 
	C57.605408,98.215904 56.753712,106.594116 51.234325,114.156044 
	C50.454193,115.224861 50.333366,117.271225 50.733376,118.620178 
	C52.577148,124.837860 54.732014,130.962784 56.732777,137.134766 
	C57.280128,138.823242 57.679874,140.559555 58.350933,143.020447 
	C53.367981,143.020447 49.059017,143.280228 44.818340,142.856537 
	C43.602245,142.735031 42.024586,140.817429 41.574036,139.414612 
	C39.897255,134.193863 38.639400,128.839432 37.181881,123.546867 
	C36.762417,122.023720 36.200336,120.539841 35.703644,119.037956 
	C35.114502,119.084999 34.525356,119.132042 33.936214,119.179085 
	C33.936214,122.468803 33.936218,125.758530 33.936218,129.048248 
	C33.936218,130.214218 33.963276,131.380905 33.932045,132.546036 
	C33.602928,144.824249 36.368771,142.760483 22.933437,143.083191 
	C19.873352,143.156693 18.862045,142.080429 18.911354,139.047058 
	C19.068357,129.388870 18.995760,119.726936 19.054657,109.632538 
z"/>
<path fill="#ECF8FF" opacity="1.000000" stroke="none" 
	d="
M364.473450,88.478745 
	C365.743195,92.071861 367.518005,95.358734 367.606476,98.690384 
	C367.826630,106.983131 367.539764,115.317375 366.870636,123.587563 
	C366.684601,125.886925 364.685120,129.719284 363.118774,129.933609 
	C356.677032,130.815079 350.069855,130.813980 343.555023,130.494873 
	C342.537354,130.445023 340.903229,127.078796 340.875061,125.226006 
	C340.634521,109.408714 340.634003,93.586021 340.815125,77.767853 
	C340.827515,76.687286 342.865692,74.735802 343.995178,74.710968 
	C350.143463,74.575813 356.349701,74.503273 362.445282,75.201416 
	C370.024689,76.069489 375.367676,80.628494 377.950104,87.720261 
	C383.096466,101.852982 383.028198,116.173027 377.635010,130.196167 
	C374.323364,138.806946 367.680054,143.228561 358.214813,143.056458 
	C352.543060,142.953323 346.867950,143.037537 341.194336,143.037537 
	C341.153107,142.402588 341.111847,141.767654 341.070587,141.132706 
	C342.499908,140.898224 343.924622,140.499619 345.359436,140.458939 
	C350.351318,140.317413 355.347961,140.349472 360.340485,140.222763 
	C366.575012,140.064514 371.350067,137.147034 373.926514,131.581528 
	C380.714355,116.918571 380.832825,101.918274 374.658630,87.077423 
	C372.439789,81.744041 367.862549,78.397789 361.878052,77.896645 
	C355.935608,77.399025 349.961121,77.284866 343.658203,76.986313 
	C343.454407,78.773796 343.187927,80.036766 343.185181,81.300308 
	C343.155426,94.956818 343.137451,108.613495 343.181274,122.269928 
	C343.200378,128.230698 343.917206,128.890533 349.738556,128.955338 
	C364.379608,129.118317 364.832367,128.839432 365.115814,114.072289 
	C365.239777,107.612633 364.947571,101.087135 364.119324,94.685341 
	C363.454712,89.548698 361.948242,88.880920 355.551025,89.263000 
	C355.551025,100.436142 355.551025,111.713287 355.551025,122.990440 
	C354.898712,123.021049 354.246368,123.051666 353.594055,123.082283 
	C353.401978,121.485504 353.054260,119.889732 353.043854,118.291771 
	C352.988464,109.798409 353.014893,101.304504 353.018341,92.810783 
	C353.021210,85.769859 355.441406,84.169495 362.145996,86.827309 
	C362.896790,87.124931 363.525574,87.730255 364.473450,88.478745 
z"/>
<path fill="#ECF8FF" opacity="1.000000" stroke="none" 
	d="
M235.700851,102.479256 
	C237.194489,95.748749 237.972458,89.210518 240.281662,83.267242 
	C242.854706,76.644981 248.733185,73.657005 255.871796,73.609131 
	C263.159180,73.560249 268.778320,76.463409 272.074402,83.191269 
	C277.417816,94.098068 277.677399,105.783951 276.371948,117.415604 
	C275.642395,123.916260 273.760376,130.455856 271.325592,136.549530 
	C268.890503,142.643936 263.696045,144.908432 258.029449,143.912460 
	C253.190018,143.061859 249.803696,139.786407 249.558044,133.024323 
	C249.081360,119.903313 249.461456,106.745720 249.738281,93.608589 
	C249.780670,91.597656 250.806595,89.357025 252.009781,87.674759 
	C254.293213,84.482109 258.780792,84.715477 260.812012,88.066414 
	C261.817322,89.724930 262.661133,91.783623 262.696442,93.677696 
	C262.891754,104.160454 262.969757,114.651756 262.731903,125.132057 
	C262.666779,128.001160 261.783234,131.163498 257.646454,132.250412 
	C262.154755,118.932846 261.087799,106.068619 259.821259,93.250267 
	C259.648529,91.501938 257.633606,89.935623 256.471619,88.285034 
	C255.109360,89.917007 252.609741,91.518173 252.564575,93.185806 
	C252.199905,106.651184 252.098419,120.133369 252.390549,133.600143 
	C252.464600,137.013687 254.109604,140.441345 258.468506,141.117844 
	C262.989014,141.819366 266.838074,140.281097 268.418396,136.218536 
	C270.683929,130.394470 273.092010,124.242043 273.395569,118.128342 
	C273.853210,108.913208 273.318298,99.479301 271.774506,90.381172 
	C270.179962,80.984085 264.330200,76.465500 256.675842,76.401558 
	C248.116516,76.330063 242.123169,81.017189 240.112411,90.724960 
	C236.888809,106.288315 236.331314,121.798813 244.046921,136.517426 
	C244.356110,137.107254 244.192062,137.945175 244.267807,138.914337 
	C237.824646,135.219269 234.664734,121.485260 235.700851,102.479256 
z"/>
<path fill="#ECF8FF" opacity="1.000000" stroke="none" 
	d="
M399.909729,140.402527 
	C401.299133,139.280960 402.733093,138.309738 403.079590,137.041428 
	C403.997192,133.682755 404.482147,130.202011 405.071442,126.758240 
	C406.712402,117.168060 406.698822,117.165741 417.057648,114.721146 
	C416.021332,109.123238 414.979492,103.495583 413.937683,97.867928 
	C413.731293,97.879646 413.524902,97.891365 413.318512,97.903084 
	C412.421082,102.080292 411.523621,106.257500 410.626190,110.434708 
	C409.825439,110.263550 409.024719,110.092392 408.223969,109.921227 
	C409.641663,102.309937 411.059357,94.698654 412.477051,87.087364 
	C413.193085,87.080925 413.909119,87.074478 414.625183,87.068039 
	C416.510132,97.150818 418.395111,107.233597 420.234375,117.071854 
	C419.294617,117.635307 419.028992,117.923584 418.740265,117.948982 
	C409.422302,118.768890 409.413300,118.763443 407.675842,127.928253 
	C406.963043,131.688263 406.206299,135.443573 405.639801,139.226501 
	C405.231567,141.952682 404.149109,143.340271 401.095886,143.103714 
	C397.653809,142.837006 394.175201,143.042282 390.173737,143.042282 
	C390.327271,141.252304 390.278900,139.983856 390.561523,138.794022 
	C395.290558,118.884338 400.150696,99.005104 404.736572,79.062737 
	C405.528564,75.618637 406.951385,74.477585 410.420013,74.464668 
	C421.103790,74.424889 421.158051,74.281570 423.653442,84.634926 
	C427.902649,102.264694 432.081757,119.911400 436.269348,137.555954 
	C436.638885,139.112991 436.854126,140.706650 437.275574,143.022614 
	C432.685211,143.022614 428.724091,143.205765 424.801788,142.896698 
	C423.793365,142.817230 422.373993,141.338211 422.063293,140.241531 
	C421.072327,136.743729 420.514130,133.123337 419.750336,129.360855 
	C417.630798,129.053406 415.622437,128.762085 413.614075,128.470779 
	C413.578979,127.878532 413.543854,127.286285 413.508728,126.694038 
	C415.840607,126.566711 418.271393,126.004745 420.460815,126.503128 
	C421.490570,126.737526 422.176697,128.959305 422.787811,130.379776 
	C423.169159,131.266312 423.086243,132.344376 423.269012,133.325821 
	C424.729309,141.166519 425.167938,141.442230 434.032959,139.697174 
	C431.701843,129.877762 429.383057,120.069199 427.043152,110.265671 
	C424.687134,100.394676 422.180939,90.556938 420.013763,80.644897 
	C419.273804,77.260574 417.242401,76.836693 414.567749,77.210724 
	C411.931305,77.579422 408.363098,75.552116 407.282196,80.150879 
	C402.676056,99.747978 397.982788,119.324600 393.342865,138.913788 
	C393.278015,139.187485 393.491608,139.527115 393.732758,140.417435 
	C395.538177,140.417435 397.498383,140.417435 399.909729,140.402527 
z"/>
<path fill="#EAF7FF" opacity="1.000000" stroke="none" 
	d="
M105.789841,121.346222 
	C105.838783,112.401947 105.737671,103.903542 105.944633,95.412628 
	C106.086105,89.608871 109.144279,87.855888 114.776505,89.966026 
	C114.774323,90.123795 114.793549,90.417099 114.771614,90.420212 
	C107.063271,91.513474 108.565201,97.378723 108.538055,102.441666 
	C108.504128,108.771271 108.651749,115.107315 108.413147,121.428963 
	C108.119461,129.210480 105.946442,131.094879 98.271660,130.921173 
	C96.646996,130.884399 95.020790,130.915802 93.447792,130.915802 
	C91.430901,138.576996 92.094604,139.555908 99.592499,140.113113 
	C101.418327,140.248779 103.253723,140.371460 105.081917,140.339554 
	C112.825577,140.204407 117.477448,136.772934 117.754753,129.187820 
	C118.350807,112.884277 118.139885,96.551323 118.266190,80.230461 
	C118.292236,76.863686 115.853027,77.196693 113.718208,77.269531 
	C111.554283,77.343361 108.756760,76.422173 108.559395,80.176270 
	C108.487068,81.551933 108.114746,82.911827 107.879272,84.278923 
	C107.320694,84.267059 106.762123,84.255196 106.203545,84.243332 
	C106.069916,81.357269 105.936287,78.471199 105.758591,74.633514 
	C110.475128,74.633514 114.716301,74.465065 118.921158,74.780609 
	C119.728256,74.841171 121.023682,76.801346 121.028206,77.889595 
	C121.096802,94.379120 121.379974,110.883560 120.785767,127.354660 
	C120.369942,138.880844 114.500992,143.651947 102.184021,142.909607 
	C87.676758,142.035233 89.622864,142.759430 90.394325,128.022842 
	C90.401070,127.893906 90.605003,127.775291 90.597168,127.783936 
	C95.753838,125.748253 104.508507,133.400894 105.789841,121.346222 
z"/>
<path fill="#EEF9FF" opacity="1.000000" stroke="none" 
	d="
M456.273987,84.040901 
	C456.181091,81.595665 456.088867,79.646461 455.989105,77.538368 
	C454.171417,77.410942 452.852844,77.378685 451.550629,77.215614 
	C448.014435,76.772804 446.449982,77.979149 446.500641,81.850136 
	C446.679321,95.496384 446.649872,109.146965 446.532867,122.794479 
	C446.497620,126.907318 448.175385,128.394394 452.223541,128.241638 
	C458.207001,128.015869 464.208740,128.307159 470.196136,128.141464 
	C473.428772,128.052002 474.529541,129.285126 474.641571,132.494141 
	C475.009766,143.042831 475.114960,143.039169 464.581360,143.039200 
	C457.871979,143.039215 451.162598,143.039200 444.453217,143.039200 
	C444.433533,142.346695 444.413818,141.654175 444.394135,140.961670 
	C453.351807,140.961670 462.309479,140.961670 471.569672,140.961670 
	C471.569672,137.067947 471.569672,134.339279 471.569672,130.977142 
	C464.618103,130.977142 457.847290,130.939255 451.077118,130.990662 
	C446.667114,131.024139 444.018677,129.119415 444.007721,124.535919 
	C443.969574,108.558418 444.016937,92.580688 444.056610,76.603104 
	C444.057770,76.140999 444.336792,75.679573 444.680878,74.616570 
	C448.497650,74.616570 452.465271,74.438156 456.394653,74.746834 
	C457.331940,74.820473 458.889160,76.513435 458.897888,77.473122 
	C459.031464,92.116470 458.960754,106.761772 458.896210,121.406441 
	C458.894501,121.791519 458.426239,122.174538 456.716278,122.610649 
	C456.590515,118.574509 456.416565,114.539131 456.352142,110.501999 
	C456.283081,106.175346 456.316864,101.847054 456.306122,97.519470 
	C456.295410,93.191956 456.285126,88.864441 456.273987,84.040901 
z"/>
<path fill="#EAF7FF" opacity="1.000000" stroke="none" 
	d="
M78.963531,107.000000 
	C78.963524,97.027969 78.963524,87.555946 78.963524,78.216461 
	C71.941277,76.216927 71.684181,76.366371 68.011185,84.197807 
	C64.529182,78.074493 66.262177,74.500648 72.765297,74.535431 
	C82.708611,74.588615 81.611084,73.473541 81.635422,83.283127 
	C81.679642,101.107780 81.659500,118.932625 81.631195,136.757339 
	C81.628098,138.706116 81.395515,140.654510 81.256088,142.808350 
	C76.356781,142.808350 71.911293,142.808350 67.290237,142.808350 
	C67.063187,141.875610 66.711433,141.100006 66.709488,140.323517 
	C66.672852,125.664459 66.565781,111.004082 66.725441,96.346725 
	C66.795082,89.953529 69.880043,87.942070 75.489914,90.069153 
	C75.440125,90.368622 75.421631,90.919952 75.333832,90.931221 
	C69.421364,91.689812 69.000534,95.629662 69.132500,100.553375 
	C69.418060,111.207260 69.219185,121.874092 69.220596,132.535629 
	C69.221741,141.193268 69.570641,141.471527 78.963531,139.707962 
	C78.963531,129.059769 78.963531,118.279884 78.963531,107.000000 
z"/>
<path fill="#E5F979" opacity="1.000000" stroke="none" 
	d="
M78.691772,336.983459 
	C80.016068,338.286591 81.274826,339.161133 82.176849,340.314667 
	C82.970909,341.330078 83.366051,342.657410 83.937347,343.847046 
	C82.468475,343.838257 80.745018,344.329529 79.574989,343.733826 
	C74.615440,341.208710 71.998428,335.220947 72.898972,329.279846 
	C73.903297,322.654053 79.831184,317.460419 86.802605,317.098389 
	C93.485886,316.751312 99.427078,321.056671 101.419327,327.690582 
	C103.307426,333.977722 100.565720,341.011993 94.806198,343.885651 
	C93.656891,344.459076 91.933197,343.881256 90.474365,343.834290 
	C91.115753,342.663666 91.487129,341.166016 92.443253,340.376587 
	C97.841217,335.919647 99.095276,331.085876 95.901566,326.116119 
	C93.121765,321.790405 87.469994,320.329498 82.678940,322.698242 
	C77.414368,325.301178 75.895897,330.345398 78.691772,336.983459 
z"/>
</svg>