<svg version="1.1" id="Layer_1" xmlns="http://www.w3.org/2000/svg" xmlns:xlink="http://www.w3.org/1999/xlink" x="0px" y="0px"
	 width="100%" viewBox="0 0 500 500" enable-background="new 0 0 500 500" xml:space="preserve">
<path fill="#EDEEEE" opacity="1.000000" stroke="none" 
	d="
M272.000000,501.000000 
	C181.333359,501.000000 91.166710,501.000000 1.000048,501.000000 
	C1.000032,334.333405 1.000032,167.666794 1.000016,1.000138 
	C167.666565,1.000092 334.333130,1.000092 500.999756,1.000046 
	C500.999847,167.666519 500.999847,334.333038 500.999939,500.999786 
	C424.833344,501.000000 348.666656,501.000000 272.000000,501.000000 
M459.469238,334.160767 
	C461.468903,334.159851 463.468903,334.181091 465.468201,334.154053 
	C472.751190,334.055573 474.118256,332.711182 474.119934,325.236816 
	C474.137054,248.074173 474.136963,170.911545 474.120758,93.748901 
	C474.119171,86.210205 472.542633,84.506714 465.120941,84.463722 
	C448.955658,84.370064 432.788910,84.509537 416.623962,84.391502 
	C411.068542,84.350945 407.483826,86.495010 404.536682,91.417091 
	C391.623688,112.983154 378.323639,134.317459 365.164520,155.736145 
	C361.020782,162.480789 360.427582,162.473206 356.173370,155.556656 
	C342.916321,134.003189 329.584839,112.494789 316.477295,90.850761 
	C313.860779,86.530205 310.587616,84.389511 305.575562,84.411499 
	C289.076782,84.483879 272.576782,84.353348 256.078613,84.476219 
	C248.990570,84.528999 247.201920,86.402786 247.198746,93.502777 
	C247.164078,170.832062 247.164490,248.161362 247.199875,325.490662 
	C247.203110,332.558044 248.793701,334.115723 255.736816,334.141022 
	C271.735779,334.199310 287.735077,334.166229 303.734253,334.158112 
	C313.384186,334.153229 314.250732,333.287384 314.252319,323.589539 
	C314.258881,284.258240 314.244965,244.926956 314.283905,205.595718 
	C314.286041,203.438477 314.697418,201.281631 314.918335,199.124588 
	C315.392731,199.038696 315.867126,198.952805 316.341522,198.866913 
	C317.466217,200.393265 318.716644,201.843445 319.695343,203.458267 
	C326.252747,214.277649 332.831451,225.085617 339.230438,235.998657 
	C341.688293,240.190414 345.100189,242.077423 349.873718,242.021744 
	C357.039032,241.938141 364.207275,241.919373 371.371918,242.027557 
	C376.352692,242.102768 379.833069,240.129288 382.386719,235.750275 
	C388.842712,224.679260 395.539612,213.748322 402.189606,202.791367 
	C403.055359,201.364868 404.212616,200.115250 405.234833,198.783707 
	C405.666962,198.928345 406.099060,199.072983 406.531158,199.217621 
	C406.711456,201.267624 407.047363,203.317490 407.048981,205.367630 
	C407.080322,245.032211 407.066437,284.696808 407.077728,324.361389 
	C407.080139,332.899506 408.342316,334.142944 416.980591,334.155365 
	C430.813171,334.175262 444.645813,334.160797 459.469238,334.160767 
M181.328140,240.062164 
	C177.001068,230.831833 177.859421,232.790512 185.440628,227.884064 
	C192.891617,223.061859 200.402267,217.713287 206.233307,211.130966 
	C219.778061,195.841049 223.296082,177.151276 222.239410,157.130859 
	C220.153091,117.602158 190.285034,86.478691 150.879272,85.267830 
	C112.754333,84.096329 74.576653,84.598106 36.421780,84.483665 
	C29.580481,84.463150 27.921495,86.348267 27.919579,93.235008 
	C27.898012,170.725098 27.898197,248.215195 27.921064,325.705292 
	C27.923130,332.703613 29.384449,334.120728 36.526863,334.142670 
	C52.524670,334.191803 68.522736,334.167328 84.520683,334.157471 
	C93.857529,334.151703 94.950348,333.076050 94.953163,323.891724 
	C94.960762,299.061554 94.892349,274.231171 94.983246,249.401367 
	C95.027748,237.244675 92.914505,238.447083 106.084534,238.036972 
	C111.474655,237.869125 114.039185,239.809586 116.111526,244.692764 
	C127.805878,272.248810 139.903519,299.633453 151.708740,327.142975 
	C153.816269,332.054169 156.870865,334.550446 162.363449,334.216858 
	C167.012329,333.934509 171.692047,334.160767 176.358109,334.160248 
	C189.689743,334.158722 203.021652,334.207703 216.352875,334.131989 
	C222.738708,334.095734 224.354050,331.452026 221.819565,325.533386 
	C221.361740,324.464233 220.794739,323.442322 220.297302,322.389557 
	C207.435760,295.169098 194.576736,267.947418 181.328140,240.062164 
M296.035522,444.507721 
	C296.035522,440.062683 296.035522,435.617645 296.035522,431.090149 
	C299.555359,431.090149 302.470703,431.090149 305.900299,431.090149 
	C305.900299,442.102142 305.900299,452.838074 305.900299,463.642639 
	C309.802551,463.642639 313.174072,463.642639 316.519531,463.642639 
	C316.519531,439.714355 316.519531,416.154846 316.519531,392.429016 
	C312.926025,392.429016 309.677490,392.429016 305.817261,392.429016 
	C305.817261,402.069427 305.817261,411.462799 305.817261,420.867371 
	C302.277008,420.867371 299.361084,420.867371 295.851379,420.867371 
	C295.851379,411.193207 295.851379,401.807251 295.851379,392.480530 
	C291.989777,392.480530 288.737457,392.480530 285.297119,392.480530 
	C285.297119,416.366058 285.297119,439.933380 285.297119,463.704956 
	C288.924530,463.704956 292.304626,463.704956 296.035522,463.704956 
	C296.035522,457.438599 296.035522,451.471375 296.035522,444.507721 
M256.778229,404.678741 
	C258.311066,403.466736 259.843872,402.254730 261.376709,401.042694 
	C262.605560,402.781647 264.683685,404.423920 264.894928,406.278748 
	C265.410919,410.809814 265.063263,415.439209 265.063263,420.102051 
	C269.300415,420.102051 272.525940,420.102051 276.324982,420.102051 
	C275.950531,414.258148 276.075287,408.720886 275.140564,403.368683 
	C273.731506,395.300659 268.755920,391.460846 260.956970,391.404755 
	C253.129608,391.348419 247.980347,395.200958 246.132401,402.858673 
	C245.435913,405.744812 245.076355,408.776367 245.043213,411.747009 
	C244.918671,422.907867 244.766541,434.077911 245.110519,445.229523 
	C245.235504,449.281464 246.133698,453.541687 247.719101,457.263947 
	C250.331909,463.398346 255.898163,465.192749 262.180237,464.834778 
	C268.658600,464.465637 273.391327,461.333588 274.608612,455.170532 
	C275.933838,448.460846 275.972626,441.497040 276.581268,434.541443 
	C272.177216,434.541443 268.957703,434.541443 265.089386,434.541443 
	C265.089386,439.701935 265.497070,444.555725 264.903137,449.283691 
	C264.638947,451.386719 262.670929,454.507568 260.923889,454.941254 
	C257.041260,455.905029 256.314117,452.104614 256.297516,449.411804 
	C256.207336,434.770142 256.419373,420.126648 256.778229,404.678741 
M223.672256,446.477051 
	C223.672256,441.728241 223.672256,436.979431 223.672256,431.748962 
	C228.164886,431.748962 231.918015,431.748962 235.774826,431.748962 
	C235.774826,428.487610 235.774826,425.728790 235.774826,422.434875 
	C231.795975,422.434875 228.038864,422.434875 224.004547,422.434875 
	C224.004547,415.362244 224.004547,408.827911 224.004547,401.667236 
	C228.376266,401.667236 232.430908,401.667236 236.355545,401.667236 
	C236.355545,398.151123 236.355545,395.272339 236.355545,392.435974 
	C228.308029,392.435974 220.714508,392.435974 212.955658,392.435974 
	C212.955658,416.394897 212.955658,440.073761 212.955658,463.769196 
	C221.100220,463.769196 228.866608,463.769196 236.769028,463.769196 
	C236.769028,460.648041 236.769028,457.780121 236.769028,454.376587 
	C232.358383,454.376587 228.274597,454.376587 223.671967,454.376587 
	C223.671967,451.717682 223.671967,449.595367 223.672256,446.477051 
M187.850433,442.499878 
	C187.850433,449.580383 187.850433,456.660889 187.850433,463.739441 
	C191.820221,463.739441 195.070602,463.739441 198.812241,463.739441 
	C198.812241,453.362152 198.812256,443.254608 198.812256,433.147095 
	C198.812256,422.879242 198.812241,412.611420 198.812241,402.143463 
	C201.734940,401.925537 204.130341,401.746918 206.470169,401.572449 
	C206.470169,398.237061 206.470169,395.358276 206.470169,392.440369 
	C197.322388,392.440369 188.579544,392.440369 179.593292,392.440369 
	C179.593292,395.617584 179.593292,398.503906 179.593292,401.591827 
	C182.451157,401.798218 185.005768,401.982727 187.850357,402.188171 
	C187.850357,415.592804 187.850357,428.546387 187.850433,442.499878 
M167.538849,464.002441 
	C168.966782,463.913696 170.394714,463.824921 171.820236,463.736328 
	C171.820236,460.358337 171.820236,457.330536 171.820236,454.305481 
	C168.768600,454.305481 166.063995,454.305481 163.036316,454.305481 
	C163.036316,456.736664 163.201172,458.867126 162.996658,460.961487 
	C162.708832,463.908875 164.370270,464.217377 167.538849,464.002441 
z"/>
<path fill="#195EFF" opacity="1.000000" stroke="none" 
	d="
M458.973816,334.160828 
	C444.645813,334.160797 430.813171,334.175262 416.980591,334.155365 
	C408.342316,334.142944 407.080139,332.899506 407.077728,324.361389 
	C407.066437,284.696808 407.080322,245.032211 407.048981,205.367630 
	C407.047363,203.317490 406.711456,201.267624 406.531158,199.217621 
	C406.099060,199.072983 405.666962,198.928345 405.234833,198.783707 
	C404.212616,200.115250 403.055359,201.364868 402.189606,202.791367 
	C395.539612,213.748322 388.842712,224.679260 382.386719,235.750275 
	C379.833069,240.129288 376.352692,242.102768 371.371918,242.027557 
	C364.207275,241.919373 357.039032,241.938141 349.873718,242.021744 
	C345.100189,242.077423 341.688293,240.190414 339.230438,235.998657 
	C332.831451,225.085617 326.252747,214.277649 319.695343,203.458267 
	C318.716644,201.843445 317.466217,200.393265 316.341522,198.866913 
	C315.867126,198.952805 315.392731,199.038696 314.918335,199.124588 
	C314.697418,201.281631 314.286041,203.438477 314.283905,205.595718 
	C314.244965,244.926956 314.258881,284.258240 314.252319,323.589539 
	C314.250732,333.287384 313.384186,334.153229 303.734253,334.158112 
	C287.735077,334.166229 271.735779,334.199310 255.736816,334.141022 
	C248.793701,334.115723 247.203110,332.558044 247.199875,325.490662 
	C247.164490,248.161362 247.164078,170.832062 247.198746,93.502777 
	C247.201920,86.402786 248.990570,84.528999 256.078613,84.476219 
	C272.576782,84.353348 289.076782,84.483879 305.575562,84.411499 
	C310.587616,84.389511 313.860779,86.530205 316.477295,90.850761 
	C329.584839,112.494789 342.916321,134.003189 356.173370,155.556656 
	C360.427582,162.473206 361.020782,162.480789 365.164520,155.736145 
	C378.323639,134.317459 391.623688,112.983154 404.536682,91.417091 
	C407.483826,86.495010 411.068542,84.350945 416.623962,84.391502 
	C432.788910,84.509537 448.955658,84.370064 465.120941,84.463722 
	C472.542633,84.506714 474.119171,86.210205 474.120758,93.748901 
	C474.136963,170.911545 474.137054,248.074173 474.119934,325.236816 
	C474.118256,332.711182 472.751190,334.055573 465.468201,334.154053 
	C463.468903,334.181091 461.468903,334.159851 458.973816,334.160828 
z"/>
<path fill="#195EFF" opacity="1.000000" stroke="none" 
	d="
M181.522705,240.394043 
	C194.576736,267.947418 207.435760,295.169098 220.297302,322.389557 
	C220.794739,323.442322 221.361740,324.464233 221.819565,325.533386 
	C224.354050,331.452026 222.738708,334.095734 216.352875,334.131989 
	C203.021652,334.207703 189.689743,334.158722 176.358109,334.160248 
	C171.692047,334.160767 167.012329,333.934509 162.363449,334.216858 
	C156.870865,334.550446 153.816269,332.054169 151.708740,327.142975 
	C139.903519,299.633453 127.805878,272.248810 116.111526,244.692764 
	C114.039185,239.809586 111.474655,237.869125 106.084534,238.036972 
	C92.914505,238.447083 95.027748,237.244675 94.983246,249.401367 
	C94.892349,274.231171 94.960762,299.061554 94.953163,323.891724 
	C94.950348,333.076050 93.857529,334.151703 84.520683,334.157471 
	C68.522736,334.167328 52.524670,334.191803 36.526863,334.142670 
	C29.384449,334.120728 27.923130,332.703613 27.921064,325.705292 
	C27.898197,248.215195 27.898012,170.725098 27.919579,93.235008 
	C27.921495,86.348267 29.580481,84.463150 36.421780,84.483665 
	C74.576653,84.598106 112.754333,84.096329 150.879272,85.267830 
	C190.285034,86.478691 220.153091,117.602158 222.239410,157.130859 
	C223.296082,177.151276 219.778061,195.841049 206.233307,211.130966 
	C200.402267,217.713287 192.891617,223.061859 185.440628,227.884064 
	C177.859421,232.790512 177.001068,230.831833 181.522705,240.394043 
M94.954941,156.513107 
	C94.955727,165.178589 94.996765,173.844376 94.932808,182.509384 
	C94.913559,185.117950 95.195992,187.183319 98.545380,187.151321 
	C110.540932,187.036682 122.566902,187.480469 134.524719,186.765564 
	C146.937485,186.023453 155.355331,177.156570 155.874939,165.714661 
	C156.415741,153.806442 148.930893,144.235535 136.137482,142.883881 
	C124.429276,141.646866 112.522385,142.397568 100.717697,141.914383 
	C95.933899,141.718552 94.424797,143.541763 94.907295,148.025330 
	C95.173218,150.496368 94.954933,153.019516 94.954941,156.513107 
z"/>
<path fill="#1D60FF" opacity="1.000000" stroke="none" 
	d="
M296.035522,445.005951 
	C296.035522,451.471375 296.035522,457.438599 296.035522,463.704956 
	C292.304626,463.704956 288.924530,463.704956 285.297119,463.704956 
	C285.297119,439.933380 285.297119,416.366058 285.297119,392.480530 
	C288.737457,392.480530 291.989777,392.480530 295.851379,392.480530 
	C295.851379,401.807251 295.851379,411.193207 295.851379,420.867371 
	C299.361084,420.867371 302.277008,420.867371 305.817261,420.867371 
	C305.817261,411.462799 305.817261,402.069427 305.817261,392.429016 
	C309.677490,392.429016 312.926025,392.429016 316.519531,392.429016 
	C316.519531,416.154846 316.519531,439.714355 316.519531,463.642639 
	C313.174072,463.642639 309.802551,463.642639 305.900299,463.642639 
	C305.900299,452.838074 305.900299,442.102142 305.900299,431.090149 
	C302.470703,431.090149 299.555359,431.090149 296.035522,431.090149 
	C296.035522,435.617645 296.035522,440.062683 296.035522,445.005951 
z"/>
<path fill="#1D60FF" opacity="1.000000" stroke="none" 
	d="
M256.652832,405.081238 
	C256.419373,420.126648 256.207336,434.770142 256.297516,449.411804 
	C256.314117,452.104614 257.041260,455.905029 260.923889,454.941254 
	C262.670929,454.507568 264.638947,451.386719 264.903137,449.283691 
	C265.497070,444.555725 265.089386,439.701935 265.089386,434.541443 
	C268.957703,434.541443 272.177216,434.541443 276.581268,434.541443 
	C275.972626,441.497040 275.933838,448.460846 274.608612,455.170532 
	C273.391327,461.333588 268.658600,464.465637 262.180237,464.834778 
	C255.898163,465.192749 250.331909,463.398346 247.719101,457.263947 
	C246.133698,453.541687 245.235504,449.281464 245.110519,445.229523 
	C244.766541,434.077911 244.918671,422.907867 245.043213,411.747009 
	C245.076355,408.776367 245.435913,405.744812 246.132401,402.858673 
	C247.980347,395.200958 253.129608,391.348419 260.956970,391.404755 
	C268.755920,391.460846 273.731506,395.300659 275.140564,403.368683 
	C276.075287,408.720886 275.950531,414.258148 276.324982,420.102051 
	C272.525940,420.102051 269.300415,420.102051 265.063263,420.102051 
	C265.063263,415.439209 265.410919,410.809814 264.894928,406.278748 
	C264.683685,404.423920 262.605560,402.781647 261.376709,401.042694 
	C259.843872,402.254730 258.311066,403.466736 256.652832,405.081238 
z"/>
<path fill="#1E61FF" opacity="1.000000" stroke="none" 
	d="
M223.672119,446.975037 
	C223.671967,449.595367 223.671967,451.717682 223.671967,454.376587 
	C228.274597,454.376587 232.358383,454.376587 236.769028,454.376587 
	C236.769028,457.780121 236.769028,460.648041 236.769028,463.769196 
	C228.866608,463.769196 221.100220,463.769196 212.955658,463.769196 
	C212.955658,440.073761 212.955658,416.394897 212.955658,392.435974 
	C220.714508,392.435974 228.308029,392.435974 236.355545,392.435974 
	C236.355545,395.272339 236.355545,398.151123 236.355545,401.667236 
	C232.430908,401.667236 228.376266,401.667236 224.004547,401.667236 
	C224.004547,408.827911 224.004547,415.362244 224.004547,422.434875 
	C228.038864,422.434875 231.795975,422.434875 235.774826,422.434875 
	C235.774826,425.728790 235.774826,428.487610 235.774826,431.748962 
	C231.918015,431.748962 228.164886,431.748962 223.672256,431.748962 
	C223.672256,436.979431 223.672256,441.728241 223.672119,446.975037 
z"/>
<path fill="#2062FE" opacity="1.000000" stroke="none" 
	d="
M187.850403,441.999939 
	C187.850357,428.546387 187.850357,415.592804 187.850357,402.188171 
	C185.005768,401.982727 182.451157,401.798218 179.593292,401.591827 
	C179.593292,398.503906 179.593292,395.617584 179.593292,392.440369 
	C188.579544,392.440369 197.322388,392.440369 206.470169,392.440369 
	C206.470169,395.358276 206.470169,398.237061 206.470169,401.572449 
	C204.130341,401.746918 201.734940,401.925537 198.812241,402.143463 
	C198.812241,412.611420 198.812256,422.879242 198.812256,433.147095 
	C198.812256,443.254608 198.812241,453.362152 198.812241,463.739441 
	C195.070602,463.739441 191.820221,463.739441 187.850433,463.739441 
	C187.850433,456.660889 187.850433,449.580383 187.850403,441.999939 
z"/>
<path fill="#1A5EFF" opacity="1.000000" stroke="none" 
	d="
M167.071594,464.002258 
	C164.370270,464.217377 162.708832,463.908875 162.996658,460.961487 
	C163.201172,458.867126 163.036316,456.736664 163.036316,454.305481 
	C166.063995,454.305481 168.768600,454.305481 171.820236,454.305481 
	C171.820236,457.330536 171.820236,460.358337 171.820236,463.736328 
	C170.394714,463.824921 168.966782,463.913696 167.071594,464.002258 
z"/>
<path fill="#EDEDEE" opacity="1.000000" stroke="none" 
	d="
M94.954941,156.016144 
	C94.954933,153.019516 95.173218,150.496368 94.907295,148.025330 
	C94.424797,143.541763 95.933899,141.718552 100.717697,141.914383 
	C112.522385,142.397568 124.429276,141.646866 136.137482,142.883881 
	C148.930893,144.235535 156.415741,153.806442 155.874939,165.714661 
	C155.355331,177.156570 146.937485,186.023453 134.524719,186.765564 
	C122.566902,187.480469 110.540932,187.036682 98.545380,187.151321 
	C95.195992,187.183319 94.913559,185.117950 94.932808,182.509384 
	C94.996765,173.844376 94.955727,165.178589 94.954941,156.016144 
z"/>
</svg>